<?xml version="1.0" standalone="no"?>
<!DOCTYPE svg PUBLIC "-//W3C//DTD SVG 20010904//EN"
 "http://www.w3.org/TR/2001/REC-SVG-20010904/DTD/svg10.dtd">
<svg version="1.0" xmlns="http://www.w3.org/2000/svg"
 width="260.000000pt" height="260.000000pt" viewBox="0 0 260.000000 260.000000"
 preserveAspectRatio="xMidYMid meet">
<metadata>
Created by potrace 1.11, written by Peter Selinger 2001-2013
</metadata>
<g transform="translate(0.000000,260.000000) scale(0.100000,-0.100000)"
fill="#000000" stroke="none">
<path d="M897 2592 c14 -9 6 -52 -9 -52 -5 0 -6 6 -2 13 6 8 3 8 -9 -1 -9 -8
-22 -10 -29 -6 -8 5 -8 1 2 -11 14 -17 14 -18 -8 -6 -13 7 -20 17 -16 24 4 7
-2 4 -13 -6 -12 -11 -24 -14 -27 -9 -7 12 -25 10 -45 -2 -12 -8 -11 -12 5 -24
18 -13 18 -14 -5 -7 -18 5 -22 4 -16 -6 6 -9 4 -11 -8 -6 -12 4 -14 2 -10 -11
6 -15 5 -16 -12 -2 -10 8 -16 10 -12 3 4 -6 2 -15 -4 -19 -8 -4 -9 -3 -5 4 4
7 2 12 -4 12 -6 0 -8 5 -5 10 3 6 3 10 -2 10 -9 0 -39 -61 -35 -73 1 -5 -2 -6
-8 -2 -6 3 -8 12 -4 18 3 7 0 5 -8 -4 -7 -9 -20 -14 -28 -11 -12 4 -13 2 -2
-9 6 -7 12 -18 12 -23 0 -6 -4 -5 -9 3 -5 7 -14 10 -20 6 -9 -5 -9 -11 1 -23
7 -9 8 -13 2 -9 -6 3 -22 0 -37 -8 -19 -9 -29 -10 -33 -3 -5 7 -2 8 7 3 10 -6
11 -5 3 4 -12 13 -44 5 -44 -11 0 -5 -5 -6 -12 -2 -7 4 -8 3 -4 -5 5 -7 13 -9
20 -4 7 4 3 0 -7 -9 -11 -10 -23 -15 -28 -12 -5 3 -9 -2 -9 -11 0 -10 5 -13
12 -9 7 4 8 3 4 -5 -6 -9 -11 -9 -24 1 -13 11 -14 11 -7 -1 6 -11 4 -13 -7 -8
-12 4 -15 0 -13 -18 1 -13 -4 -26 -11 -29 -8 -3 -11 0 -7 10 3 7 1 14 -4 14
-5 0 -10 -7 -11 -15 -1 -8 -3 -22 -4 -30 -1 -12 -4 -12 -16 -2 -13 10 -14 9
-3 -11 12 -22 11 -23 -7 -13 -23 12 -33 5 -24 -17 5 -15 4 -15 -12 -3 -15 12
-17 12 -14 0 2 -8 8 -17 13 -21 6 -5 5 -8 -3 -8 -7 0 -24 -7 -38 -16 -19 -13
-22 -20 -13 -30 9 -11 8 -14 -6 -14 -14 0 -13 -3 6 -21 13 -11 19 -18 12 -15
-6 4 -16 -2 -22 -11 -6 -10 -11 -13 -11 -7 0 5 3 14 8 20 4 5 0 2 -9 -8 -9 -9
-19 -15 -22 -12 -3 3 -8 0 -13 -7 -4 -8 -3 -10 4 -5 18 11 14 -4 -6 -22 -10
-10 -12 -13 -5 -8 10 6 12 4 7 -8 -7 -18 -15 -20 -29 -8 -6 4 -9 6 -8 3 1 -2
-5 -10 -13 -19 -13 -12 -13 -16 -2 -23 10 -7 8 -9 -6 -9 -12 0 -16 -5 -12 -16
3 -9 6 -18 6 -20 0 -3 4 -2 10 1 5 3 7 0 4 -9 -3 -8 -14 -13 -24 -11 -13 3
-17 -1 -13 -11 3 -8 0 -14 -6 -14 -6 0 -11 5 -11 11 0 5 -5 7 -10 4 -6 -4 -4
-12 5 -21 18 -19 20 -31 3 -16 -10 8 -13 4 -14 -14 -1 -15 2 -21 10 -17 7 4 6
1 -1 -9 -7 -8 -11 -17 -8 -20 10 -10 12 -69 2 -75 -6 -3 -7 -1 -3 5 4 7 1 12
-9 12 -10 0 -13 -5 -9 -12 5 -8 0 -9 -15 -5 l-21 5 0 -398 1 -399 26 5 c20 4
24 2 19 -11 -3 -10 1 -18 11 -22 15 -6 14 -7 -3 -14 -17 -7 -17 -8 -1 -8 9 -1
17 -6 17 -12 0 -5 -4 -8 -9 -4 -9 5 -5 -45 5 -54 2 -2 -2 -11 -9 -19 -9 -13
-9 -14 1 -8 11 7 17 -11 13 -37 -1 -5 3 -6 8 -2 6 3 7 13 4 23 -6 16 -6 16 11
-1 10 -9 21 -15 25 -13 4 3 7 -6 7 -19 0 -16 -4 -21 -16 -17 -12 5 -13 3 -3
-10 7 -8 10 -18 7 -21 -3 -3 1 -16 10 -29 9 -12 16 -18 16 -12 0 5 -5 15 -12
22 -9 9 -9 12 -1 12 7 0 15 -9 18 -20 3 -11 13 -20 20 -20 9 0 12 -6 9 -15 -3
-8 1 -22 10 -30 16 -16 23 -8 8 11 -4 5 6 -4 22 -19 17 -16 26 -31 20 -35 -16
-11 -15 -52 2 -52 8 0 14 -5 14 -11 0 -5 -5 -7 -12 -3 -6 4 -8 3 -5 -4 4 -5
16 -8 27 -5 12 3 20 0 20 -6 0 -7 -5 -9 -12 -5 -7 4 -8 3 -4 -5 4 -6 12 -8 18
-5 7 5 9 1 5 -9 -3 -9 -1 -19 5 -23 7 -4 8 -3 4 4 -4 7 -3 12 1 12 5 0 14 -10
19 -23 6 -12 9 -17 7 -10 -5 25 15 22 33 -5 14 -22 15 -25 1 -14 -14 12 -16
11 -14 -6 0 -11 6 -18 13 -15 6 2 19 -8 28 -22 10 -14 22 -23 28 -19 7 5 9 2
5 -9 -3 -9 -3 -16 1 -16 22 4 32 -2 26 -14 -5 -8 -2 -8 9 2 18 15 24 2 7 -15
-8 -8 -6 -15 6 -25 12 -9 15 -10 10 -2 -4 7 -2 13 3 13 6 0 11 -5 11 -11 0 -5
5 -7 10 -4 6 4 7 11 3 18 -8 13 67 -42 85 -63 8 -8 11 -10 8 -5 -2 6 4 11 14
11 10 0 17 -3 14 -7 -2 -4 6 -20 18 -35 15 -19 16 -24 5 -15 -11 9 -17 10 -17
2 0 -6 6 -12 13 -12 6 -1 19 -2 27 -3 8 0 21 6 28 14 8 8 11 9 7 3 -4 -8 1
-13 14 -13 11 0 23 -5 27 -12 4 -6 3 -8 -4 -4 -6 4 -10 -1 -9 -13 1 -12 6 -17
16 -13 8 3 12 1 8 -5 -4 -6 4 -13 18 -16 14 -2 28 0 32 6 3 5 2 7 -3 4 -6 -3
-16 -2 -23 3 -9 5 -2 7 18 6 23 0 30 -5 26 -15 -4 -11 0 -10 14 3 15 14 24 15
39 7 11 -6 23 -7 27 -3 5 4 5 1 1 -6 -4 -7 -12 -9 -18 -6 -7 4 -8 2 -4 -4 4
-7 15 -12 24 -13 11 0 12 -3 5 -6 -46 -18 29 -22 385 -20 345 2 397 4 398 17
1 8 3 20 4 25 1 6 2 14 1 18 -1 5 3 6 9 2 8 -5 7 -12 -2 -23 -12 -15 -11 -16
4 -3 10 7 24 11 33 8 8 -4 17 -1 21 5 4 6 3 8 -2 5 -6 -3 -16 -2 -23 3 -9 5
-2 7 18 6 23 0 30 -5 26 -15 -4 -10 1 -9 15 4 19 17 21 17 39 1 19 -17 19 -17
14 6 -3 12 -2 20 2 16 14 -13 33 12 27 35 -5 21 -5 21 12 4 19 -18 31 -23 22
-8 -3 5 10 8 30 6 31 -3 34 -2 22 13 -11 13 -11 14 1 7 11 -6 13 -4 8 8 -7 19
8 32 19 16 5 -8 3 -9 -6 -4 -9 6 -11 4 -5 -4 10 -17 55 25 55 51 0 12 4 16 11
12 8 -4 9 1 4 17 -7 23 -7 24 9 4 8 -11 16 -16 16 -11 0 5 7 3 15 -4 12 -10
16 -9 21 4 8 22 25 20 17 -1 -7 -19 -5 -18 17 11 8 11 10 17 4 13 -7 -4 -14
-1 -17 7 -4 9 2 12 18 11 16 -2 22 2 21 14 -1 10 5 15 17 13 9 -2 17 2 17 8 0
6 15 19 33 30 36 22 32 26 -8 8 -14 -6 -25 -15 -25 -20 0 -4 -5 -8 -11 -8 -8
0 -9 4 0 13 6 8 7 18 3 22 -4 5 -2 5 4 2 6 -4 29 3 50 14 24 12 29 17 14 13
-17 -4 -22 -3 -15 4 6 5 19 12 30 14 13 2 20 11 19 25 0 12 3 20 8 17 4 -3 8
0 8 7 0 9 3 9 14 0 11 -9 14 -8 12 5 0 9 6 19 14 21 13 4 13 3 0 -7 -13 -10
-13 -11 0 -7 20 5 19 43 0 39 -12 -3 -12 -1 -3 9 10 10 16 9 30 -2 10 -7 7 0
-7 15 -14 16 -19 26 -12 22 9 -6 12 -2 10 10 -2 11 3 19 12 20 36 3 41 5 36
13 -4 5 0 12 6 14 10 4 9 8 -2 17 -12 10 -11 11 8 7 15 -4 25 0 29 9 3 8 9 11
14 8 13 -8 11 10 -3 25 -10 11 -10 13 0 7 8 -5 12 0 12 14 0 13 -4 19 -12 14
-7 -4 -8 -3 -4 4 4 7 15 12 24 12 12 1 10 5 -8 15 -30 17 -26 18 18 6 31 -9
32 -9 20 12 -10 20 -9 21 5 9 13 -11 15 -10 10 9 -5 17 -3 20 8 14 11 -7 12
-6 2 6 -8 9 -10 31 -7 55 5 31 3 36 -6 24 -10 -13 -11 -13 -6 0 3 8 9 23 12
33 4 9 11 17 16 17 5 0 7 -4 4 -9 -4 -5 2 -8 11 -7 17 3 18 29 21 382 3 378 0
442 -19 413 -7 -12 -9 -11 -9 4 0 20 -11 22 -27 6 -9 -9 -11 -7 -8 7 2 11 4
23 4 27 1 5 7 5 14 1 9 -6 9 -5 0 7 -8 9 -10 31 -7 55 4 31 3 36 -6 24 -9 -12
-10 -11 -5 7 5 17 0 25 -22 37 -15 8 -24 15 -19 16 6 0 2 6 -9 13 -14 11 -15
16 -5 22 8 5 11 4 7 -2 -3 -5 1 -10 10 -10 12 0 11 5 -7 19 -20 16 -16 23 12
19 4 0 5 6 1 15 -5 13 -7 13 -15 2 -7 -10 -13 -8 -28 11 -11 12 -18 27 -15 31
3 4 -3 14 -12 21 -12 10 -14 10 -9 2 4 -7 2 -13 -3 -13 -6 0 -11 7 -11 15 0 8
-5 15 -11 15 -5 0 -7 -4 -4 -10 3 -6 -1 -7 -9 -4 -9 3 -13 11 -9 18 11 16 11
76 0 69 -4 -3 -7 3 -5 12 3 20 -29 30 -47 15 -8 -7 -12 -5 -12 5 0 8 4 12 8 9
4 -2 10 0 14 6 6 9 -7 14 -27 11 -5 0 -7 2 -7 7 3 18 -2 32 -12 32 -5 0 -7 -6
-4 -12 4 -7 0 -5 -9 5 -8 11 -12 26 -8 35 5 15 4 15 -11 3 -15 -12 -17 -12
-10 4 5 15 3 17 -11 12 -11 -4 -15 -3 -10 4 4 8 -1 9 -17 4 -22 -7 -23 -6 -5
7 17 14 17 15 -7 31 -19 12 -27 13 -30 4 -4 -9 -6 -9 -6 1 -1 7 -5 10 -11 7
-5 -3 -10 -1 -10 5 0 7 7 10 15 6 8 -3 15 -1 15 3 0 5 -7 12 -16 15 -9 3 -14
12 -11 19 3 9 -6 12 -29 12 -19 0 -34 -4 -34 -8 0 -5 -5 -5 -10 -2 -6 4 -8 12
-4 18 3 7 -1 4 -9 -6 -14 -17 -15 -17 -22 0 -5 10 -7 24 -6 32 1 7 -2 10 -8 6
-6 -3 -11 -1 -11 5 0 6 -4 9 -9 5 -5 -3 -13 0 -17 6 -4 8 -3 9 4 5 7 -4 12 -2
12 3 0 11 -15 15 -35 11 -5 -1 -1 8 9 19 17 19 17 19 -1 17 -10 -2 -27 1 -38
7 -17 9 -18 8 -8 -4 9 -11 7 -14 -13 -15 -19 -2 -22 1 -14 11 9 11 7 12 -11 8
-19 -5 -21 -3 -17 15 4 12 2 22 -3 22 -5 0 -9 -6 -10 -12 0 -7 -4 -4 -8 6 -4
11 -17 20 -29 21 -18 1 -20 -1 -9 -13 10 -13 9 -14 -11 -3 -13 7 -20 17 -15
24 5 8 2 8 -9 -1 -8 -7 -24 -9 -33 -5 -13 4 -16 3 -11 -5 6 -9 1 -9 -18 0 -15
6 -24 13 -21 16 3 3 0 11 -7 19 -9 11 -7 12 8 7 16 -5 16 -4 4 5 -10 7 -145
11 -415 11 -220 0 -395 -4 -388 -8z m1480 -521 c-1 -12 -6 -17 -15 -14 -10 5
-11 8 -2 13 7 5 9 13 5 20 -5 8 -4 11 3 6 6 -3 10 -15 9 -25z m56 -76 c-3 -9
-8 -14 -10 -11 -3 3 -2 9 2 15 9 16 15 13 8 -4z m-2033 -1670 c7 -9 8 -15 2
-15 -5 0 -12 7 -16 15 -3 8 -4 15 -2 15 2 0 9 -7 16 -15z m175 -108 c4 5 5 2
1 -4 -5 -10 -11 -10 -26 0 -11 6 -20 16 -20 21 0 5 8 2 18 -7 10 -10 22 -14
27 -10z m1445 -42 c0 -12 -19 -12 -23 0 -4 9 -1 12 9 8 7 -3 14 -7 14 -8z
m-150 -75 c0 -5 -5 -10 -11 -10 -5 0 -7 5 -4 10 3 6 8 10 11 10 2 0 4 -4 4
-10z"/>
<path d="M616 2481 c-4 -5 -2 -12 3 -15 5 -4 12 -2 15 3 4 5 2 12 -3 15 -5 4
-12 2 -15 -3z"/>
<path d="M2035 2390 c3 -5 8 -10 11 -10 2 0 4 5 4 10 0 6 -5 10 -11 10 -5 0
-7 -4 -4 -10z"/>
<path d="M2460 1981 c0 -6 4 -13 10 -16 6 -3 7 1 4 9 -7 18 -14 21 -14 7z"/>
<path d="M610 145 c0 -8 4 -15 10 -15 5 0 7 7 4 15 -4 8 -8 15 -10 15 -2 0 -4
-7 -4 -15z"/>
<path d="M855 50 c3 -5 8 -10 11 -10 2 0 4 5 4 10 0 6 -5 10 -11 10 -5 0 -7
-4 -4 -10z"/>
<path d="M1815 50 c3 -5 8 -10 11 -10 2 0 4 5 4 10 0 6 -5 10 -11 10 -5 0 -7
-4 -4 -10z"/>
</g>
</svg>
